<svg width="33" height="33" viewBox="0 0 25 25" fill="none" xmlns="http://www.w3.org/2000/svg">
<ellipse cx="21.0077" cy="8.39822" rx="3" ry="2.76923" transform="rotate(30 21.0077 8.39822)" fill="#F03A47" fill-opacity="0.5"/>
<path d="M20.0246 8.25478C20.7308 7.71547 21.7371 8.29645 21.6232 9.17775L19.8153 23.1647C19.7238 23.8725 18.9416 24.2594 18.3235 23.9026L8.92236 18.4748C8.30428 18.1179 8.24824 17.2471 8.81547 16.814L20.0246 8.25478Z" fill="#FDFFFC"/>
<path d="M25.3088 22.0201C25.612 23.1011 24.9661 24.2198 23.8783 24.4978L18.273 25.9303C16.5574 26.3686 15.1604 24.5259 16.0457 22.9925L20.0889 15.9895C20.9743 14.4561 23.2686 14.7446 23.7467 16.4494L25.3088 22.0201Z" fill="#F03A47"/>
<path d="M5.62963 13.9621C5.32648 12.8811 5.97237 11.7623 7.06016 11.4844L12.6655 10.0519C14.381 9.61353 15.7781 11.4562 14.8928 12.9897L10.8495 19.9927C9.96422 21.5261 7.66987 21.2376 7.19178 19.5327L5.62963 13.9621Z" fill="#F03A47"/>
</svg>
